<?xml version="1.0" encoding="UTF-8"?><svg id="_ар_1" xmlns="http://www.w3.org/2000/svg" viewBox="0 0 29.88 29.84"><path d="M0,8.24c.17-.47,.28-.98,.53-1.4,.7-1.2,1.79-1.84,3.17-1.84,3.31-.02,6.61,0,9.92,0,.77,0,1.32,.55,1.31,1.26,0,.71-.56,1.23-1.32,1.23-3.24,0-6.48,0-9.71,0-.92,0-1.41,.48-1.41,1.4,0,5.71,0,11.42,0,17.12,0,.9,.48,1.39,1.38,1.39,5.72,0,11.43,0,17.15,0,.88,0,1.37-.5,1.37-1.37,0-3.26,0-6.51,0-9.77,0-.91,.82-1.51,1.65-1.23,.52,.18,.84,.65,.84,1.27,0,1.18,0,2.35,0,3.53,0,2.09,0,4.18,0,6.27,0,1.82-1.18,3.3-2.92,3.7-.14,.03-.29,.04-.43,.04-5.98,0-11.96,0-17.94,0-1.33,0-2.32-.61-3-1.69C.31,27.7,.2,27.14,0,26.62V8.24Z"/><path d="M21.49,4.01l4.39,4.39c-.05,.05-.11,.12-.18,.19-3.16,3.16-6.31,6.31-9.46,9.47-.21,.21-.44,.33-.73,.39-1.35,.26-2.7,.54-4.06,.8-.56,.11-.93-.24-.82-.79,.28-1.42,.56-2.84,.86-4.25,.03-.16,.13-.33,.24-.45,3.21-3.22,6.43-6.44,9.65-9.66,.04-.04,.08-.07,.11-.1Z"/><path d="M27.28,7.04l-4.44-4.43c.73-.68,1.42-1.45,2.23-2.06,1.2-.9,2.91-.65,3.95,.45,1.03,1.09,1.17,2.79,.23,3.96-.6,.75-1.32,1.39-1.98,2.08Z"/></svg>